<svg width="474" height="425" viewBox="0 0 474 425" xmlns="http://www.w3.org/2000/svg" xmlns:xlink="http://www.w3.org/1999/xlink">
    <defs>
        <linearGradient x1="66.297%" y1="43.865%" x2="11.101%" y2="78.635%" id="iyfvur9i4b">
            <stop stop-color="#2657F7" offset="0%"/>
            <stop stop-color="#001F85" offset="100%"/>
        </linearGradient>
        <linearGradient x1="64.691%" y1="45.199%" x2="11.713%" y2="76.47%" id="hpew7xkexd">
            <stop stop-color="#2657F7" stop-opacity=".867" offset="0%"/>
            <stop stop-color="#001F85" stop-opacity=".502" offset="100%"/>
        </linearGradient>
        <linearGradient x1="27.241%" y1="34.38%" x2="50%" y2="100%" id="rj6ivujsce">
            <stop stop-color="#FBFBFB" offset="0%"/>
            <stop stop-color="#92AAFB" offset="100%"/>
        </linearGradient>
        <path d="M249.38 360.204c86.75 0 171.993 3.52 209.257-69.342 34.765-67.974 0-127.568-36.254-148.053-62.144-35.115-80.705-56.468-92.76-75.372-27.883-43.729-65.543-85.93-166.991-58.96C95.075 26.437 58.98 70.904 56.364 120.297c-1.58 29.816 24.282 62.173 19.519 89.457-8.529 48.85-47.205 42.721-67.23 75.225-9.69 15.727-28.69 104.476 60.128 132.985 91.38 29.33 93.85-57.76 180.6-57.76z" id="qbq5h49gza"/>
    </defs>
    <g transform="translate(.753 .983)" fill="none" fill-rule="evenodd">
        <circle fill="#2657F7" cx="403.247" cy="70.017" r="24"/>
        <circle fill="#92AAFB" cx="381.747" cy="18.517" r="8.5"/>
        <circle fill="#92AAFB" cx="364.247" cy="78.017" r="5"/>
        <circle fill="#2657F7" cx="226.247" cy="387.017" r="10"/>
        <circle fill="#00165E" cx="24.247" cy="171.017" r="5"/>
        <circle fill="#062797" cx="43.247" cy="210.017" r="15"/>
        <mask id="ib1o3ha9rc" fill="#fff">
            <use xlink:href="#qbq5h49gza"/>
        </mask>
        <use fill="url(#iyfvur9i4b)" xlink:href="#qbq5h49gza"/>
        <g mask="url(#ib1o3ha9rc)">
            <path d="M351.717 409.494c124.098-37.503 205.542-6.288 193.671-119.056-7.68-72.97-157.63-109.08-193.67-147.585-66.804-71.37-112.473-104.791-187.994-81.362-91.549 28.401-42.619 97.727-53.41 163.658-10.791 65.932-53.188 140.724-20.929 190.799 54.555 84.682 138.234 31.048 262.332-6.454z" fill="url(#hpew7xkexd)" transform="rotate(-83 193.627 120.347)"/>
            <path d="M124.34 92.021c-.03-.004-.063-.004-.093-.004-16.541 0-30 13.455-30 30 0 16.542 13.459 30 30 30s30-13.458 30-30c0-.033-.008-.063-.008-.097-16.072-.941-28.953-13.826-29.898-29.899zm.407 28.107c4.132 0 7.5 3.39 7.5 7.556 0 3.51-2.404 6.441-5.625 7.287v2.157c0 1.04-.84 1.89-1.875 1.89a1.885 1.885 0 0 1-1.875-1.89v-2.157c-3.225-.846-5.625-3.778-5.625-7.287 0-1.043.84-1.889 1.875-1.889 1.035 0 1.875.846 1.875 1.889 0 2.081 1.68 3.778 3.75 3.778 2.066 0 3.75-1.697 3.75-3.778 0-2.085-1.684-3.778-3.75-3.778-4.136 0-7.5-3.392-7.5-7.555 0-3.514 2.4-6.445 5.625-7.288v-2.157c0-1.043.84-1.889 1.875-1.889 1.035 0 1.875.846 1.875 1.89v2.156c3.221.846 5.625 3.778 5.625 7.288 0 1.038-.84 1.888-1.875 1.888a1.885 1.885 0 0 1-1.875-1.888c0-2.086-1.684-3.778-3.75-3.778-2.07 0-3.75 1.692-3.75 3.778 0 2.081 1.68 3.777 3.75 3.777z" fill="#92AAFB" fill-rule="nonzero"/>
            <path d="M155.747 62.017c-15.717 0-28.5 12.787-28.5 28.5s12.783 28.5 28.5 28.5 28.5-12.787 28.5-28.5-12.783-28.5-28.5-28.5zm-.498 27.11c3.862 0 6.998 3.22 6.998 7.177 0 3.307-2.196 6.061-5.156 6.9v1.924c0 1.039-.825 1.89-1.842 1.89-1.017 0-1.843-.851-1.843-1.89v-1.924c-2.966-.839-5.159-3.593-5.159-6.9 0-1.04.825-1.89 1.843-1.89 1.017 0 1.842.85 1.842 1.89 0 1.874 1.489 3.405 3.317 3.405s3.313-1.53 3.313-3.405c0-1.874-1.485-3.397-3.313-3.397-3.862 0-7.002-3.22-7.002-7.18 0-3.3 2.196-6.058 5.16-6.897v-1.923c0-1.04.825-1.89 1.842-1.89 1.017 0 1.842.85 1.842 1.89v1.923c2.963.835 5.156 3.594 5.156 6.897 0 1.043-.826 1.89-1.843 1.89s-1.842-.847-1.842-1.89c0-1.875-1.485-3.401-3.313-3.401s-3.317 1.526-3.317 3.4c0 1.875 1.489 3.402 3.317 3.402z" fill="#92AAFB" fill-rule="nonzero"/>
            <g fill="#2657F7" fill-rule="nonzero">
                <path d="M119.34 338.664v-21.676c.094-1.376-1.408-2.397-2.732-1.794-14.27 6.55-26.266 12.64-48.361 14.78v37.09c22.095 2.14 34.09 8.225 48.36 14.775 1.325.607 2.83-.418 2.732-1.794V358.37c4.379 0 7.908-3.539 7.908-7.882v-3.941c0-4.343-3.53-7.882-7.908-7.882zm3.977 11.823a3.94 3.94 0 0 1-3.93 3.941v-11.823c2.165 0 3.93 1.77 3.93 3.941v3.941zM46.275 331.017c-7.74 0-14.028 6.28-14.028 14v8c0 7.724 6.289 14 14.028 14h9.972v-36h-9.972z"/>
                <path d="M59.247 366.536v-37.548c0-1.088.896-1.97 2-1.97s2 .882 2 1.97v37.548c0 10.118 5.708 19.218 14.895 23.747.988.492 1.384 1.686.896 2.644-.492.974-1.696 1.368-2.684.883-10.551-5.203-17.107-15.65-17.107-27.274z"/>
            </g>
            <g opacity=".745" fill="#FFF" fill-rule="nonzero">
                <path d="M354.181 188.477a1.51 1.51 0 0 0-.934 1.415c.006.612.387 1.161.965 1.384l25.103 9.741 43.932-41-69.066 28.46zM381.277 203.73l-.03-.03v20.79c0 .837.664 1.527 1.503 1.527.524 0 1.026-.28 1.3-.757l9.883-17.207 18.16 10.14c.428.243.936.247 1.348.054.433-.198.746-.592.845-1.068l11.961-56.162-44.97 42.713z" opacity=".832"/>
            </g>
            <g fill="#002CBD" fill-rule="nonzero">
                <path d="M294.58 320.017h-16.666c-.92 0-1.667.695-1.667 1.55v9.3c0 3.358 1.12 5.363 3.333 5.99v12.61c0 .856.747 1.55 1.667 1.55h10c.92 0 1.667-.694 1.667-1.55v-12.61c2.21-.627 3.326-2.632 3.333-5.99v-9.3c0-.855-.747-1.55-1.667-1.55zM351.664 320.017H335.83c-.874 0-1.583.695-1.583 1.55v9.3c0 3.358 1.064 5.363 3.167 5.99v12.61c0 .856.709 1.55 1.583 1.55h9.5c.874 0 1.583-.694 1.583-1.55v-12.61c2.1-.627 3.164-2.632 3.167-5.99v-9.3c0-.855-.71-1.55-1.583-1.55zM325.684 319.017H303.81c-.862 0-1.562.72-1.562 1.607v16.072c0 3.883 2.687 7.126 6.25 7.875v17.84c0 .886.7 1.606 1.562 1.606h9.375c.863 0 1.563-.72 1.563-1.607v-17.84c3.562-.745 6.25-3.991 6.25-7.874v-16.072c0-.887-.7-1.607-1.563-1.607zM290.343 305.921a6.5 6.5 0 1 1-9.192 9.192 6.5 6.5 0 0 1 9.192-9.192M347.343 305.921a6.5 6.5 0 1 1-9.192 9.192 6.5 6.5 0 0 1 9.192-9.192M321.464 300.8a9.5 9.5 0 1 1-13.435 13.435 9.5 9.5 0 0 1 13.435-13.435"/>
            </g>
            <path d="M264.072.017c-23.807 0-43.174 15.942-43.174 35.533 0 9.251 4.234 17.923 11.963 24.56l-8.671 17.297c-.77 1.532.849 3.154 2.367 2.435l23.16-10.769c4.598 1.33 9.423 2.007 14.355 2.007 23.808 0 43.175-15.939 43.175-35.53 0-19.59-19.371-35.533-43.175-35.533z" fill="#2657F7" fill-rule="nonzero"/>
        </g>
        <g mask="url(#ib1o3ha9rc)" fill="url(#rj6ivujsce)" fill-rule="nonzero">
            <path d="M298.914 124.017c8.464 0 15.333 6.877 15.333 15.334 0 11.592-12.612 19.32-23.069 13.156l-53.544 53.42c7.368 9.147 9.361 20.962 6.149 31.565l43.4 18.599c2.814-3.381 7-5.581 11.73-5.581 8.465 0 15.334 6.877 15.334 15.333s-6.87 15.333-15.333 15.333c-9.361 0-16.852-8.464-15.042-18.162l-43.125-18.477c-10.496 18.393-34.884 23.246-51.528 9.875l-30.475 30.529c6.164 10.442-1.556 23.076-13.164 23.076-8.456 0-15.333-6.884-15.333-15.333 0-11.646 12.688-19.312 23.069-13.171l30.475-30.537c-8.104-10.173-9.66-23.636-4.715-35.09l-20.73-8.571c-2.745 4.14-7.445 6.869-12.766 6.869-8.456 0-15.333-6.885-15.333-15.333 0-8.457 6.877-15.334 15.333-15.334 8.464 0 15.916 7.023 15.211 16.53l22.157 9.146c5.566-7.598 14.145-12.85 23.981-13.946V154.14c-6.593-1.718-11.5-7.667-11.5-14.79 0-8.456 6.87-15.333 15.333-15.333 8.449 0 15.334 6.877 15.334 15.334 0 7.122-4.907 13.071-11.516 14.789v39.107a34.268 34.268 0 0 1 17.61 7.284l53.56-53.437c-6.18-10.519 1.618-23.077 13.164-23.077zm-74.435 79h-5.884a.98.98 0 0 0-.979.98v2.63c-1.373.415-2.178 1.01-2.951 1.693l-2.448-1.357a.977.977 0 0 0-1.324.367l-2.932 5.087a.98.98 0 0 0 .36 1.336l2.34 1.35a10.509 10.509 0 0 0 .007 3.248l-2.327 1.35a.981.981 0 0 0-.355 1.339l2.967 5.088a.93.93 0 0 0 .44.378c-.042.015-.083.017-.122.04l-2.446 1.358c-.774-.684-1.579-1.277-2.952-1.694v-2.63a.98.98 0 0 0-.98-.98h-5.88a.98.98 0 0 0-.98.98v2.63c-1.372.415-2.177 1.01-2.951 1.694l-2.448-1.357a.977.977 0 0 0-1.324.366L188.378 232a.976.976 0 0 0 .36 1.335l2.34 1.35a10.509 10.509 0 0 0 .007 3.248l-2.327 1.352a.981.981 0 0 0-.354 1.34l2.967 5.087c.27.464.86.623 1.328.358l2.389-1.351c.78.69 1.586 1.277 2.945 1.688v2.63c0 .54.44.98.98.98h5.883a.98.98 0 0 0 .98-.98v-2.632c1.358-.411 2.163-1 2.945-1.688l2.389 1.351a.977.977 0 0 0 1.328-.358l2.967-5.088a.979.979 0 0 0-.355-1.34l-2.326-1.349c.17-1.094.172-2.166.006-3.249l2.34-1.349a.98.98 0 0 0 .36-1.335l-2.933-5.09a.965.965 0 0 0-.445-.382c.043-.018.088-.022.13-.043l2.389-1.351c.781.689 1.586 1.277 2.945 1.688v2.632c0 .54.439.979.98.979h5.883a.98.98 0 0 0 .979-.98v-2.631c1.36-.411 2.164-1 2.945-1.688l2.39 1.35a.976.976 0 0 0 1.328-.357l2.967-5.088a.976.976 0 0 0-.353-1.34l-2.325-1.349c.17-1.095.173-2.168.006-3.249l2.34-1.35a.98.98 0 0 0 .361-1.335l-2.936-5.09a.979.979 0 0 0-1.324-.366l-2.448 1.357c-.773-.683-1.578-1.276-2.951-1.693v-2.629a.98.98 0 0 0-.98-.979zm-22.732 28c3.032 0 5.5 2.469 5.5 5.5 0 3.032-2.468 5.5-5.5 5.5a5.508 5.508 0 0 1-5.5-5.5c0-3.031 2.468-5.5 5.5-5.5zm20.5-20c3.307 0 6 2.693 6 6s-2.693 6-6 6-6-2.693-6-6 2.693-6 6-6z"/>
        </g>
    </g>
</svg>
